<svg width="20" height="19" viewBox="0 0 20 19" fill="none" xmlns="http://www.w3.org/2000/svg">
<path d="M8 18C8.55228 18 9 17.5523 9 17C9 16.4477 8.55228 16 8 16C7.44772 16 7 16.4477 7 17C7 17.5523 7.44772 18 8 18Z" stroke="#9B9B9B" stroke-width="2" stroke-linecap="round" stroke-linejoin="round"/>
<path d="M17 18C17.5523 18 18 17.5523 18 17C18 16.4477 17.5523 16 17 16C16.4477 16 16 16.4477 16 17C16 17.5523 16.4477 18 17 18Z" stroke="#9B9B9B" stroke-width="2" stroke-linecap="round" stroke-linejoin="round"/>
<path d="M1 1H4.27273L6.46545 11.7117C6.54027 12.08 6.7452 12.4109 7.04436 12.6464C7.34351 12.8818 7.71784 13.0069 8.10182 12.9997H16.0545C16.4385 13.0069 16.8129 12.8818 17.112 12.6464C17.4112 12.4109 17.6161 12.08 17.6909 11.7117L19 4.9999H5.09091" stroke="#9B9B9B" stroke-width="2" stroke-linecap="round" stroke-linejoin="round"/>
</svg>
