<svg width="32" height="32" viewBox="0 0 32 32" fill="none" xmlns="http://www.w3.org/2000/svg">
<rect x="0.5" y="0.5" width="31" height="31" rx="6.5" fill="white" stroke="#F8F8F8"/>
<path d="M21.2408 11.7648L21.2403 11.7643C20.9112 11.4299 20.5246 11.1656 20.102 10.9843L20.1011 10.9839C19.6626 10.7952 19.1933 10.6989 18.7201 10.7L18.7185 10.7C18.0528 10.7 17.4029 10.8888 16.8368 11.2468L16.8368 11.2468C16.7012 11.3325 16.5728 11.4264 16.4513 11.5285L16.0008 11.9073L15.5503 11.5285C15.4288 11.4264 15.3004 11.3325 15.1649 11.2468L15.1648 11.2468C14.5987 10.8888 13.9488 10.7 13.2831 10.7C12.8023 10.7 12.3391 10.7951 11.9005 10.9839L11.8997 10.9843C11.4754 11.1664 11.0921 11.4284 10.7611 11.7645L10.7602 11.7654C10.4324 12.0969 10.1692 12.4932 9.98681 12.9325L21.2408 11.7648ZM21.2408 11.7648C21.5685 12.097 21.8318 12.4936 22.015 12.9329C22.2047 13.39 22.3014 13.8742 22.3 14.3738V14.3758C22.3 14.8428 22.208 15.3436 22.0143 15.8686L22.0137 15.8702M21.2408 11.7648L22.0137 15.8702M12.764 19.6803L12.764 19.6803C13.4921 20.3772 14.2191 20.9686 14.7731 21.3914C15.0495 21.6023 15.2816 21.7702 15.4473 21.8872C15.5301 21.9456 15.5961 21.9912 15.6427 22.0229C15.6835 22.0507 15.706 22.0656 15.7115 22.0693C15.7127 22.07 15.7131 22.0703 15.7128 22.0701L15.724 22.0772L15.7239 22.0773L16 22.2609L16.2761 22.0773L16.2762 22.0772C16.3253 22.0446 17.7739 21.0783 19.236 19.6803H12.764ZM12.764 19.6803C11.8851 18.8392 11.1928 18.0241 10.698 17.2595M12.764 19.6803L10.698 17.2595M22.0137 15.8702C21.8534 16.3079 21.615 16.7752 21.3022 17.2592M22.0137 15.8702L21.3022 17.2592M10.698 17.2595C10.386 16.7768 10.1484 16.3087 9.9857 15.8686L10.698 17.2595ZM21.3022 17.2592C20.8075 18.0238 20.1151 18.839 19.2362 19.6801L21.3022 17.2592ZM9.7 14.3758C9.7 13.8747 9.79697 13.3898 9.98679 12.9326L9.98557 15.8683C9.79196 15.3434 9.7 14.8427 9.7 14.3758Z" stroke="#ECECEC" stroke-width="1.4"/>
</svg>
