<svg width="32" height="32" viewBox="0 0 32 32" fill="none" xmlns="http://www.w3.org/2000/svg">
<rect width="32" height="32" rx="7" fill="#FEF0F0"/>
<path d="M22.6613 12.6641C22.4441 12.1428 22.1309 11.6703 21.7392 11.2733C21.3472 10.875 20.8851 10.5585 20.3779 10.341C19.852 10.1146 19.288 9.99865 18.7185 10C17.9195 10 17.1401 10.2268 16.4627 10.6551C16.3006 10.7576 16.1467 10.8701 16.0008 10.9927C15.855 10.8701 15.701 10.7576 15.5389 10.6551C14.8616 10.2268 14.0821 10 13.2831 10C12.7078 10 12.1504 10.1142 11.6237 10.341C11.1148 10.5594 10.6562 10.8735 10.2624 11.2733C9.87023 11.6699 9.55695 12.1424 9.34032 12.6641C9.11506 13.2067 9 13.7828 9 14.3758C9 14.9351 9.1102 15.518 9.32897 16.1109C9.5121 16.6065 9.77463 17.1205 10.1101 17.6395C10.6416 18.4609 11.3725 19.3176 12.28 20.186C13.7839 21.6255 15.2732 22.62 15.3364 22.6603L15.7204 22.9156C15.8906 23.0281 16.1094 23.0281 16.2795 22.9156L16.6636 22.6603C16.7268 22.6183 18.2145 21.6255 19.72 20.186C20.6275 19.3176 21.3584 18.4609 21.8899 17.6395C22.2254 17.1205 22.4895 16.6065 22.671 16.1109C22.8898 15.518 23 14.9351 23 14.3758C23.0016 13.7828 22.8865 13.2067 22.6613 12.6641Z" fill="#FF8585"/>
</svg>
