<svg width="21" height="20" viewBox="0 0 21 20" fill="none" xmlns="http://www.w3.org/2000/svg">
<path fill-rule="evenodd" clip-rule="evenodd" d="M0 10C0 4.579 4.80795 0 10.5 0C16.192 0 21 4.579 21 10C21 13.19 19.3284 16.078 16.8 17.924V18H16.6929C14.9415 19.245 12.7963 20 10.5 20C8.20365 20 6.0585 19.245 4.3071 18H4.2V17.924C1.6716 16.078 0 13.189 0 10ZM7.47964 15.236C6.92112 15.6639 6.53243 16.2604 6.3777 16.927C7.6041 17.604 9.0132 18 10.5 18C11.9868 18 13.3959 17.604 14.6223 16.927C14.4674 16.2605 14.0787 15.6641 13.5202 15.2362C12.9617 14.8083 12.2668 14.5744 11.55 14.573H9.45C8.73316 14.5742 8.03816 14.808 7.47964 15.236ZM14.4561 13.4117C15.3171 13.9574 15.99 14.7329 16.3905 15.641C17.9308 14.182 18.9 12.176 18.9 10C18.9 5.663 15.0538 2 10.5 2C5.94615 2 2.1 5.663 2.1 10C2.1 12.176 3.06915 14.182 4.6095 15.641C5.01002 14.7329 5.68288 13.9574 6.54388 13.4117C7.40488 12.866 8.41576 12.5742 9.45 12.573H11.55C12.5842 12.5742 13.5951 12.866 14.4561 13.4117ZM6 8C6 5.72 7.72 4 10 4C12.28 4 14 5.72 14 8C14 10.28 12.28 12 10 12C7.72 12 6 10.28 6 8ZM8 8C8 9.178 8.822 10 10 10C11.178 10 12 9.178 12 8C12 6.822 11.178 6 10 6C8.822 6 8 6.822 8 8Z" fill="#9B9B9B"/>
</svg>
