<svg width="22" height="19" viewBox="0 0 22 19" fill="none" xmlns="http://www.w3.org/2000/svg">
<path d="M15.9204 0C17.6378 0 19.0804 0.550725 20.2482 1.65217C21.4161 2.75362 22 4.09804 22 5.68542C22 6.46292 21.8283 7.24851 21.4848 8.0422C21.1413 8.83589 20.7635 9.54049 20.3513 10.156C19.9391 10.7715 19.2436 11.5652 18.2646 12.5371C17.2857 13.509 16.4614 14.2945 15.7916 14.8939C15.1218 15.4932 14.0484 16.4084 12.5714 17.6394L10.9742 19L9.37705 17.688C7.93443 16.4246 6.86963 15.4932 6.18267 14.8939C5.49571 14.2945 4.66276 13.509 3.68384 12.5371C2.70492 11.5652 2.00937 10.7715 1.59719 10.156C1.18501 9.54049 0.815769 8.83589 0.489461 8.0422C0.163154 7.24851 0 6.46292 0 5.68542C0 4.09804 0.583919 2.75362 1.75176 1.65217C2.91959 0.550725 4.34504 0 6.0281 0C8.0203 0 9.66901 0.7289 10.9742 2.1867C12.2795 0.7289 13.9282 0 15.9204 0ZM11.0773 16.133C12.7603 14.7076 13.9883 13.6466 14.7611 12.9501C15.534 12.2536 16.3841 11.4194 17.3115 10.4476C18.2389 9.4757 18.8829 8.62532 19.2436 7.89642C19.6042 7.16752 19.7845 6.43052 19.7845 5.68542C19.7845 4.64876 19.4153 3.79028 18.6768 3.10997C17.9383 2.42967 17.0195 2.08951 15.9204 2.08951C15.096 2.08951 14.3146 2.31628 13.5761 2.76982C12.8376 3.22336 12.3138 3.80648 12.0047 4.51918H9.94379C9.66901 3.80648 9.16237 3.22336 8.42389 2.76982C7.6854 2.31628 6.88681 2.08951 6.0281 2.08951C4.92896 2.08951 4.01874 2.42967 3.29742 3.10997C2.57611 3.79028 2.21546 4.64876 2.21546 5.68542C2.21546 6.43052 2.3872 7.16752 2.73068 7.89642C3.07416 8.62532 3.71819 9.4757 4.66276 10.4476C5.60734 11.4194 6.46604 12.2536 7.23888 12.9501C8.01171 13.6466 9.22248 14.7076 10.8712 16.133L10.9742 16.2302L11.0773 16.133Z" fill="#9B9B9B"/>
</svg>
